HIERARCHY
ROOT Hips
{
 OFFSET 0.000000 0.000000 0.000000
 CHANNELS 6 Xposition Yposition Zposition Yrotation Xrotation Zrotation
 JOINT Chest
 {
  OFFSET 0.000000 9.857222 0.000240
  CHANNELS 3 Yrotation Xrotation Zrotation
  JOINT Chest2
  {
   OFFSET 0.000000 10.876940 -0.000436
   CHANNELS 3 Yrotation Xrotation Zrotation
   JOINT Chest3
   {
    OFFSET 0.000000 9.827798 0.000000
    CHANNELS 3 Yrotation Xrotation Zrotation
    JOINT Chest4
    {
     OFFSET 0.000000 9.827798 0.000000
     CHANNELS 3 Yrotation Xrotation Zrotation
     JOINT Neck
     {
      OFFSET 0.000000 13.831992 0.000000
      CHANNELS 3 Yrotation Xrotation Zrotation
      JOINT Head
      {
       OFFSET 0.000000 9.147643 -0.001036
       CHANNELS 3 Yrotation Xrotation Zrotation
       End Site
       {
        OFFSET 0.000000 17.515799 -0.000541
       }
      }
     }
     JOINT RightCollar
     {
      OFFSET -3.001579 7.717577 0.000000
      CHANNELS 3 Yrotation Xrotation Zrotation
      JOINT RightShoulder
      {
       OFFSET -14.002642 0.000000 0.000000
       CHANNELS 3 Yrotation Xrotation Zrotation
       JOINT RightElbow
       {
        OFFSET -30.053852 0.000000 0.000000
        CHANNELS 3 Yrotation Xrotation Zrotation
        JOINT RightWrist
        {
         OFFSET -24.564923 0.000000 -0.000000
         CHANNELS 3 Yrotation Xrotation Zrotation
         End Site
         {
          OFFSET -18.334355 0.000000 0.000000
         }
        }
       }
      }
     }
     JOINT LeftCollar
     {
      OFFSET 3.001579 7.717577 0.000000
      CHANNELS 3 Yrotation Xrotation Zrotation
      JOINT LeftShoulder
      {
       OFFSET 14.002642 0.000000 0.000000
       CHANNELS 3 Yrotation Xrotation Zrotation
       JOINT LeftElbow
       {
        OFFSET 30.053852 0.000000 0.000000
        CHANNELS 3 Yrotation Xrotation Zrotation
        JOINT LeftWrist
        {
         OFFSET 24.564923 0.000000 -0.000000
         CHANNELS 3 Yrotation Xrotation Zrotation
         End Site
         {
          OFFSET 18.334355 0.000000 0.000000
         }
        }
       }
      }
     }
    }
   }
  }
 }
 JOINT RightHip
 {
  OFFSET -8.003235 -0.001175 -0.000120
  CHANNELS 3 Yrotation Xrotation Zrotation
  JOINT RightKnee
  {
   OFFSET 0.000000 -41.759727 0.000113
   CHANNELS 3 Yrotation Xrotation Zrotation
   JOINT RightAnkle
   {
    OFFSET 0.000000 -40.728748 0.000159
    CHANNELS 3 Yrotation Xrotation Zrotation
    JOINT RightToe
    {
     OFFSET 0.000000 -6.515296 14.732841
     CHANNELS 3 Yrotation Xrotation Zrotation
     End Site
     {
      OFFSET 0.000000 -1.502839 6.412115
     }
    }
   }
  }
 }
 JOINT LeftHip
 {
  OFFSET 8.003235 -0.001175 -0.000120
  CHANNELS 3 Yrotation Xrotation Zrotation
  JOINT LeftKnee
  {
   OFFSET 0.000000 -41.759727 0.000113
   CHANNELS 3 Yrotation Xrotation Zrotation
   JOINT LeftAnkle
   {
    OFFSET 0.000000 -40.728748 0.000159
    CHANNELS 3 Yrotation Xrotation Zrotation
    JOINT LeftToe
    {
     OFFSET 0.000000 -6.515296 14.732841
     CHANNELS 3 Yrotation Xrotation Zrotation
     End Site
     {
      OFFSET 0.000000 -1.502839 6.412115
     }
    }
   }
  }
 }
}
MOTION
Frames: 15
Frame Time: 0.016667
0.000000 88.822259 0.000000 0.000000 -5.826342 0.000000 0.000000 11.116423 0.000000 0.000000 -5.290081 0.000000 0.000000 0.000000 0.000000 0.000000 0.000000 0.000000 0.000000 12.665069 0.000000 0.000000 0.575450 0.000000 0.000000 0.000000 0.000000 0.000000 0.000000 0.000000 2.337306 0.000000 0.000000 -2.337306 0.000000 0.000000 0.000000 0.000000 0.000000 0.000000 0.000000 0.000000 -2.337306 0.000000 0.000000 2.337306 0.000000 0.000000 0.000000 8.578828 0.000000 0.000000 1.905768 0.000000 0.000000 -4.658254 0.000000 0.000000 0.000000 0.000000 0.000000 8.578828 0.000000 0.000000 1.905768 0.000000 0.000000 -4.658254 0.000000 0.000000 0.000000 0.000000
10.971776 90.036329 -4.723030 55.943189 -17.044212 -1.288065 3.336843 2.030097 1.620367 0.630415 1.023333 0.417872 0.630415 1.023333 0.417872 0.472100 0.767932 0.312340 -1.423036 23.167627 0.425661 -2.674766 6.860384 1.142791 7.373118 24.517486 12.292528 35.250239 -0.327313 51.741459 34.534365 14.228798 28.505257 -12.787663 2.489550 4.382910 -34.225204 25.511751 -23.535737 -19.268099 -12.366340 -31.695147 -8.511247 -23.229483 -1.498264 9.854623 11.675704 10.876265 -6.692532 15.149530 1.494778 1.846519 10.001357 -6.543731 0.830729 -8.346477 2.681232 -1.146169 0.065529 -0.371374 -11.119551 21.205552 2.608809 10.359019 5.189535 -6.926743 -0.430403 -8.193176 1.035255 0.490545 0.390926 0.097074
11.068236 90.039056 -4.706083 55.749970 -16.991006 -1.275566 3.496461 2.005974 1.636159 0.644887 1.006951 0.412260 0.644887 1.006951 0.412260 0.482973 0.755649 0.308125 -1.500333 23.270049 0.448489 -2.818427 7.052859 1.202033 7.162706 24.634877 12.047572 35.502152 -1.314805 49.020822 34.838201 14.244587 28.629082 -12.989904 2.515151 5.253292 -34.204722 25.475942 -23.354574 -19.806200 -11.863940 -29.263288 -8.702316 -23.706199 -0.802476 10.040301 11.909059 11.579195 -6.406720 15.196862 1.519950 1.628103 9.896908 -6.502677 0.913420 -8.403975 2.636492 -1.147899 0.082456 -0.372021 -11.098577 21.244333 2.538997 10.340046 5.126494 -6.928790 -0.290854 -8.177152 1.147087 0.355179 0.385066 0.050527
11.192699 90.050347 -4.723835 55.805109 -16.908894 -1.242000 3.410807 1.999653 1.555731 0.657969 0.984683 0.401095 0.657969 0.984683 0.401095 0.492819 0.738946 0.299754 -1.584273 23.353625 0.466107 -2.972821 7.210466 1.253844 6.969524 24.674011 11.813172 35.959862 -2.201783 46.328523 35.097961 13.972410 28.486642 -13.131434 2.472913 5.752858 -34.211359 25.459464 -23.129387 -20.124148 -11.703471 -26.808708 -8.894976 -24.085267 -0.057547 10.229879 12.260583 12.547101 -6.468999 15.216216 1.384774 1.504386 9.767596 -6.439096 0.883222 -8.376367 2.602909 -1.079922 0.044223 -0.342698 -11.417872 21.237535 2.345353 10.371383 5.057477 -6.947843 -0.276505 -8.122577 1.245540 0.346716 0.355495 0.056957
11.324093 90.066297 -4.753503 55.789413 -16.791856 -1.239268 3.385001 1.988157 1.515910 0.671914 0.965467 0.387487 0.671914 0.965467 0.387487 0.503312 0.724527 0.289547 -1.669686 23.401639 0.474448 -3.127904 7.301922 1.290021 6.781022 24.620364 11.576575 36.696020 -2.862790 43.711720 35.337516 13.382778 27.873086 -13.166172 2.427370 5.985489 -34.175550 25.365346 -22.798099 -20.456119 -11.607231 -24.497772 -9.166523 -24.556677 0.992539 10.423817 12.832692 13.788214 -6.507401 15.216658 1.284447 1.483673 9.641691 -6.371745 0.853545 -8.357686 2.595677 -1.056208 0.007740 -0.334681 -11.664039 21.190357 2.225474 10.389974 5.011525 -6.985598 -0.280768 -8.064919 1.339973 0.364254 0.316890 0.073568
11.460922 90.085382 -4.777868 55.801377 -16.673074 -1.247746 3.324126 1.997290 1.477674 0.689753 0.955706 0.372614 0.689753 0.955706 0.372614 0.516720 0.717202 0.278376 -1.753591 23.406963 0.469672 -3.277510 7.313770 1.303189 6.596368 24.514342 11.348069 37.635240 -3.340513 41.137684 35.587281 12.531437 26.866584 -13.129014 2.366835 5.937332 -34.131772 25.267777 -22.398587 -20.818313 -11.511191 -22.250557 -9.556609 -24.943773 2.467133 10.526813 13.538476 14.929122 -6.622386 15.215126 1.186228 1.603523 9.534710 -6.319476 0.762586 -8.332593 2.595183 -1.017599 -0.040233 -0.318822 -11.864455 21.145236 2.144004 10.351044 4.966006 -7.030191 -0.338901 -7.999051 1.418203 0.422222 0.268239 0.108598
11.600216 90.104145 -4.780739 55.791287 -16.544668 -1.268970 3.268185 2.025165 1.467292 0.707289 0.950649 0.363152 0.707289 0.950649 0.363152 0.529890 0.713409 0.271258 -1.826277 23.370880 0.440786 -3.401325 7.247743 1.271140 6.412156 24.422574 11.096268 38.610559 -3.789100 38.583427 35.933109 11.607056 25.680886 -13.048619 2.287548 5.619069 -34.082452 25.273621 -22.012849 -21.219718 -11.418958 -20.040682 -10.170943 -25.138714 4.211420 10.520859 14.052364 16.108642 -6.688790 15.188169 1.151556 1.756920 9.491908 -6.298790 0.638043 -8.326994 2.580765 -0.953846 -0.107128 -0.289138 -11.921866 21.108276 2.147399 10.227296 4.918533 -7.093010 -0.413632 -7.945007 1.484478 0.483065 0.220216 0.147813
11.737983 90.116043 -4.749676 55.827586 -16.357766 -1.290288 3.172202 2.053899 1.448103 0.726167 0.940612 0.356641 0.726167 0.940612 0.356641 0.544064 0.705884 0.266357 -1.885247 23.297434 0.397947 -3.497430 7.111548 1.211455 6.249622 24.305248 10.854964 39.594551 -4.225895 36.086544 36.385745 10.820054 24.398828 -12.891816 2.250943 4.957775 -34.040713 25.285933 -21.614621 -21.611853 -11.360765 -18.034103 -11.066998 -25.202815 6.412532 10.330101 14.395138 17.205210 -6.718729 15.086378 1.182733 1.831270 9.497816 -6.329359 0.480376 -8.342939 2.539392 -0.836696 -0.181064 -0.229348 -11.854161 21.040199 2.220208 10.037741 4.855618 -7.144507 -0.540054 -7.926838 1.516495 0.554385 0.198736 0.194268
11.865195 90.117056 -4.674639 55.761748 -16.112793 -1.324401 3.185229 2.058183 1.471232 0.742740 0.929056 0.352690 0.742740 0.929056 0.352690 0.556507 0.697222 0.263383 -1.924447 23.201063 0.350970 -3.557212 6.932130 1.139818 6.094017 24.262323 10.601929 40.472482 -4.691731 33.613647 37.114623 10.346976 23.030656 -12.588556 2.208683 3.855393 -33.978409 25.347499 -21.208157 -21.980019 -11.600537 -16.161372 -12.383323 -25.434039 9.086800 10.037679 15.167005 18.172408 -6.593499 14.932192 1.301512 1.870498 9.525679 -6.381699 0.415643 -8.422351 2.506684 -0.803505 -0.218721 -0.200686 -11.526233 20.943038 2.413458 9.818633 4.791431 -7.178142 -0.690001 -7.947831 1.512327 0.624237 0.200845 0.236646
11.998506 90.110877 -4.572461 55.723801 -15.844353 -1.328823 3.194102 2.051782 1.469414 0.751507 0.920017 0.350523 0.751507 0.920017 0.350523 0.563091 0.690446 0.261756 -1.941801 23.097253 0.309261 -3.579111 6.738503 1.072132 5.957849 24.186803 10.340064 41.216086 -5.212674 31.305528 38.050716 10.254373 21.550040 -12.159382 2.171251 2.157566 -33.944813 25.433746 -20.846977 -22.316999 -12.125418 -14.436288 -14.030268 -25.163330 11.813491 9.896082 16.158556 19.396899 -6.487215 14.767204 1.381110 1.930961 9.558188 -6.421754 0.401785 -8.554121 2.474977 -0.828472 -0.224770 -0.191460 -11.185606 20.828278 2.597412 9.600282 4.727293 -7.218821 -0.809606 -7.983872 1.503971 0.677458 0.206657 0.270182
12.152328 90.103275 -4.456316 55.722508 -15.579934 -1.303817 3.217533 2.040385 1.454745 0.746942 0.916774 0.348782 0.746942 0.916774 0.348782 0.559671 0.688008 0.260460 -1.945299 22.999914 0.277003 -3.578389 6.556842 1.017603 5.796944 24.176806 10.042626 41.917467 -5.818899 29.112392 39.170732 10.396148 19.980289 -11.661427 2.097335 -0.272978 -33.946977 25.464035 -20.522439 -22.567499 -12.606731 -12.794188 -15.763086 -23.972715 13.926261 9.850675 16.845848 21.198909 -6.406319 14.634568 1.396712 1.960613 9.559854 -6.443014 0.474613 -8.702901 2.461100 -0.915921 -0.219611 -0.211039 -10.836737 20.730345 2.733020 9.418176 4.645877 -7.231332 -0.921379 -8.015659 1.491117 0.711924 0.207547 0.292609
12.322601 90.093352 -4.326820 55.657364 -15.264297 -1.288808 3.341402 1.991403 1.490488 0.732821 0.904857 0.345783 0.732821 0.904857 0.345783 0.549093 0.679059 0.258247 -1.933660 22.920824 0.253504 -3.552387 6.408975 0.974296 5.610600 24.231444 9.704270 42.518102 -6.542462 27.048962 40.512919 10.682715 18.344156 -11.136681 2.063501 -3.329671 -33.930305 25.503263 -20.223196 -22.886233 -12.951432 -11.293171 -17.169355 -22.103772 16.135431 9.388880 17.349526 22.824124 -6.227640 14.483959 1.421367 1.894496 9.516524 -6.442871 0.683956 -8.863756 2.475186 -1.097521 -0.198422 -0.276226 -10.275696 20.615808 2.974832 9.127158 4.528517 -7.294903 -1.026797 -8.031444 1.496058 0.766021 0.200138 0.318283
12.522033 90.079809 -4.202325 55.659161 -14.946308 -1.251872 3.424289 1.941195 1.501491 0.716593 0.888009 0.341993 0.716593 0.888009 0.341993 0.536937 0.666409 0.255449 -1.910841 22.869767 0.237092 -3.507654 6.313118 0.939977 5.456795 24.338965 9.381602 43.057179 -7.303408 25.126770 41.951623 11.083654 16.665186 -10.573124 2.015087 -6.895049 -33.966030 25.647122 -19.990409 -23.342932 -13.115655 -9.928109 -18.653455 -20.264689 18.536735 9.051729 18.084448 24.543571 -6.145775 14.353539 1.356322 1.820056 9.441510 -6.393908 0.882863 -9.025938 2.470933 -1.264930 -0.169083 -0.333583 -9.715148 20.509850 3.184394 8.758767 4.391853 -7.359465 -1.116646 -8.061257 1.513600 0.830145 0.205522 0.343021
12.739576 90.064000 -4.079265 55.686015 -14.621194 -1.224764 3.493601 1.875196 1.521584 0.701008 0.870093 0.340621 0.701008 0.870093 0.340621 0.525261 0.652962 0.254463 -1.881294 22.843614 0.225977 -3.451811 6.263519 0.912715 5.283237 24.509328 9.044889 43.685981 -8.014610 23.317940 43.348116 11.550746 14.894107 -9.852373 1.914536 -10.873508 -34.066720 25.866799 -19.822279 -23.868421 -13.101476 -8.708858 -19.917219 -18.205006 21.009309 8.774269 18.554133 26.214206 -6.075205 14.240870 1.289110 1.770684 9.344910 -6.324698 1.019494 -9.182193 2.440899 -1.404066 -0.141710 -0.373367 -9.248572 20.392190 3.372612 8.387366 4.275843 -7.432909 -1.168000 -8.109705 1.533248 0.899773 0.212779 0.373694
12.964739 90.045833 -3.964776 55.794354 -14.256612 -1.199985 3.492509 1.779918 1.522136 0.687820 0.850134 0.342311 0.687820 0.850134 0.342311 0.515379 0.637987 0.255772 -1.851731 22.838903 0.218315 -3.396536 6.253852 0.891100 5.096419 24.716519 8.681494 44.362181 -8.662585 21.653967 44.587464 12.096776 12.787888 -8.890905 2.054044 -15.019813 -34.170329 26.077917 -19.647758 -24.397989 -12.907066 -7.710882 -20.809200 -15.856628 23.203346 8.368996 18.550935 28.118637 -6.041573 14.102653 1.234721 1.732344 9.247238 -6.275632 1.079912 -9.343707 2.394805 -1.498712 -0.115974 -0.389087 -9.100042 20.222503 3.470278 8.180379 4.182543 -7.515401 -1.211048 -8.159617 1.548768 0.976065 0.218480 0.416629
